<svg xmlns="http://www.w3.org/2000/svg" width="48" height="48" version="1.0" viewBox="0 0 36 36"><defs><clipPath id="a"><path d="M6.473 0h23.351v23.352H6.473Zm0 0"/></clipPath></defs><g clip-path="url(#a)"><path fill="#fc9" fill-rule="evenodd" d="M27.906 16.133a.87.87 0 0 0 1.063-.613l.527-1.965a.87.87 0 0 0-.613-1.063 2.628 2.628 0 0 1-.621-4.715.87.87 0 0 0 .32-1.183l-1.02-1.762a.87.87 0 0 0-1.183-.32 2.64 2.64 0 0 1-2.805-.25 2.63 2.63 0 0 1-.969-2.645.87.87 0 0 0-.613-1.062L20.027.027a.873.873 0 0 0-1.062.614 2.628 2.628 0 0 1-4.715.62.87.87 0 0 0-1.187-.316L11.3 1.961a.87.87 0 0 0-.317 1.184A2.628 2.628 0 0 1 8.09 6.918a.87.87 0 0 0-1.063.613L6.5 9.496a.87.87 0 0 0 .613 1.063 2.64 2.64 0 0 1 1.809 2.16 2.63 2.63 0 0 1-1.188 2.554.87.87 0 0 0-.316 1.188l1.016 1.762a.87.87 0 0 0 1.183.316c.906-.465 2-.367 2.809.25a2.63 2.63 0 0 1 .965 2.645.87.87 0 0 0 .613 1.062l1.965.527a.87.87 0 0 0 1.062-.613 2.63 2.63 0 0 1 2.164-1.805c1.008-.132 2 .329 2.551 1.184a.87.87 0 0 0 1.188.316l1.761-1.015a.87.87 0 0 0 .317-1.184c-.465-.906-.367-2 .25-2.804a2.63 2.63 0 0 1 2.644-.97M11.465 9.777l.008-.03.007-.028.008-.031.012-.028.008-.031.008-.027.007-.032.012-.027.008-.031.008-.028.008-.03.011-.028.008-.028.012-.03.008-.028.011-.027.008-.028.012-.031.012-.027.007-.028.012-.027.012-.031.008-.028.011-.027q.012-.031.024-.055L11.727 9l.007-.027.012-.024.024-.054q.01-.031.023-.055l.012-.027.023-.055.024-.055.015-.027c.004-.02.016-.035.024-.055l.011-.027.016-.024.023-.054.016-.024.023-.055.016-.023.012-.027.043-.078.027-.051.016-.028.011-.023q.016-.026.032-.05l.015-.028.012-.024.016-.023.015-.027.016-.024c.262-.43.566-.828.906-1.183A6.8 6.8 0 0 1 17.86 4.77 6.9 6.9 0 0 1 19.75 5a6.7 6.7 0 0 1 2.934 1.652 6.8 6.8 0 0 1 1.882 3.266c.122.477.188.973.196 1.477v.324q-.002.042-.004.086v.03l-.004.028v.059l-.004.031-.004.027v.032l-.004.027v.031q-.004.03-.008.059v.031l-.004.027-.003.032q-.004.03-.008.058l-.004.028v.03l-.008.028v.032l-.008.027-.004.031-.004.027-.003.032q-.007.03-.008.058l-.004.028-.004.03-.008.032-.004.027-.008.032-.004.027-.003.031-.008.028-.004.03-.004.028-.008.032-.008.027-.004.031-.007.027-.008.032-.008.027-.004.031-.008.028-.008.03-.007.028-.016.063-.008.027-.008.031-.007.028-.004.03-.008.028-.012.032-.008.027-.008.031-.007.027-.012.032-.008.027-.008.031-.011.028-.008.027-.008.031-.012.028-.008.027-.011.031-.008.028-.012.027-.008.027-.011.031-.024.055-.008.027-.011.032-.024.054-.011.028-.008.027-.07.164-.024.055-.035.082a.2.2 0 0 0-.028.055l-.011.027-.012.023-.016.028-.011.027-.012.024-.016.027-.011.027-.016.024-.012.027c-.011.027-.027.05-.043.078a.2.2 0 0 1-.027.05l-.016.028-.011.024-.028.05-.015.028-.032.047-.015.027-.016.023c-.262.43-.566.829-.906 1.184a6.78 6.78 0 0 1-4.742 2.078 6.8 6.8 0 0 1-3.64-.976 6.79 6.79 0 0 1-3.262-5.648v-.266q0-.03.003-.06c0-.026 0-.058.004-.085v-.059l.004-.03v-.06l.004-.027.004-.031v-.027l.004-.032c0-.02.004-.039.004-.058l.004-.031v-.028l.004-.031q.003-.03.007-.059l.004-.027q.001-.03.008-.059l.004-.03.004-.028.004-.031.004-.028.004-.031q.004-.03.007-.059l.004-.027.008-.031.004-.028.004-.03.008-.032.004-.027.007-.032.004-.027.004-.031.008-.028.004-.03.008-.028.008-.031.004-.028.007-.031.008-.027.008-.032.004-.027.008-.031.008-.028.007-.03.008-.028.016-.063Zm0 0"/></g><path fill="#d9d9d9" fill-rule="evenodd" d="m21.344 7.945.597-.601a5.746 5.746 0 0 0-9.492 2.695 5.6 5.6 0 0 0-.164.86 5.69 5.69 0 0 1 9.059-2.954M18.934 12.027q1.305-.68 3.765-4.191c-2.465 1.336-3.984 2.402-4.566 3.21-.602.837-.121 1.466.8.981m0 0"/><path fill="#ccc" d="M6.394 28.817v-.922h2.719v.922H8.3v4.078H7.206v-4.078ZM12.546 28.833v3.125c0 .68-.32 1.015-.953 1.015h-1.031q-.954.002-.953-1.015v-3.125q-.001-1.015.953-1.016h1.031q.951.001.953 1.016m-1.078 3.25v-3.375a.15.15 0 0 0-.047-.11.11.11 0 0 0-.094-.047h-.5a.15.15 0 0 0-.109.047.2.2 0 0 0-.031.11v3.375a.15.15 0 0 0 .031.093.15.15 0 0 0 .11.047h.5q.058 0 .093-.047.047-.046.047-.093M15.339 27.895q.951.001.953 1.016v2.969c0 .68-.32 1.015-.953 1.015h-1.984v-5Zm-.125 4.11v-3.22a.15.15 0 0 0-.047-.109.11.11 0 0 0-.094-.046h-.64v3.515h.64q.059.002.094-.031a.15.15 0 0 0 .047-.11M20.046 28.833v3.125c0 .68-.32 1.015-.953 1.015h-1.031q-.955.002-.954-1.015v-3.125q0-1.015.954-1.016h1.03q.953.001.954 1.016m-1.078 3.25v-3.375a.15.15 0 0 0-.047-.11.11.11 0 0 0-.094-.047h-.5a.15.15 0 0 0-.11.047.2.2 0 0 0-.03.11v3.375a.15.15 0 0 0 .03.093.15.15 0 0 0 .11.047h.5q.059 0 .094-.047.047-.046.047-.093M21.933 27.895v5h-1.078v-5ZM25.509 29.208h-1.016v-.391a.15.15 0 0 0-.047-.11.15.15 0 0 0-.11-.046h-.421a.15.15 0 0 0-.11.047.2.2 0 0 0-.03.109v.89c0 .044.007.079.03.11a.17.17 0 0 0 .11.031h.703q.951.018.953 1.032v1.078c0 .68-.32 1.015-.953 1.015h-.922q-.953.002-.953-1.015v-.532h1.031v.563q-.002.063.032.11a.15.15 0 0 0 .109.046h.484q.059 0 .094-.047a.15.15 0 0 0 .047-.11v-.983a.15.15 0 0 0-.047-.11.11.11 0 0 0-.094-.047h-.703q-.953.002-.953-1.015v-1q0-1.015.953-1.016h.86c.632 0 .953.34.953 1.016ZM27.366 30.926v1.97h-1.078v-5h1.078v2.093h.86v-2.094h1.078v5h-1.079v-1.969Zm0 0"/></svg>